<?xml version="1.0" standalone="no"?>
<!DOCTYPE svg PUBLIC "-//W3C//DTD SVG 20010904//EN"
 "http://www.w3.org/TR/2001/REC-SVG-20010904/DTD/svg10.dtd">
<svg version="1.0" xmlns="http://www.w3.org/2000/svg"
 width="225.000000pt" height="225.000000pt" viewBox="0 0 225.000000 225.000000"
 preserveAspectRatio="xMidYMid meet">
<metadata>
Created by potrace 1.14, written by Peter Selinger 2001-2017
</metadata>
<g transform="translate(0.000000,225.000000) scale(0.100000,-0.100000)"
fill="#000000" stroke="none">
<path d="M1521 1856 c-18 -14 -74 -41 -125 -61 -160 -64 -171 -86 -212 -405
-17 -136 -36 -553 -27 -612 5 -35 7 -36 49 -40 49 -4 45 -11 63 107 5 33 19
114 31 180 12 66 20 138 17 159 -3 22 3 83 13 135 10 53 22 114 25 136 6 33 8
37 17 21 6 -10 10 -127 11 -284 2 -239 0 -278 -20 -377 -32 -160 -71 -381 -79
-447 l-6 -57 43 -11 c45 -13 228 -9 261 5 11 4 19 23 23 53 16 121 33 192 45
192 7 0 34 -135 42 -210 4 -34 51 -49 158 -49 75 0 154 10 165 21 7 6 -22 193
-61 393 -32 166 -37 215 -41 384 -5 198 3 401 16 401 13 0 43 -198 51 -330 5
-69 11 -133 16 -144 4 -10 17 -77 29 -150 11 -72 24 -130 28 -128 4 1 25 2 48
2 l40 0 -4 248 c-2 146 -11 302 -21 382 -41 335 -55 364 -191 415 -38 14 -98
41 -133 60 -58 32 -69 35 -150 35 -78 0 -92 -3 -121 -24z m169 -57 c0 -5 -20
-9 -45 -9 -25 0 -45 4 -45 9 0 4 20 8 45 8 25 0 45 -4 45 -8z m-70 -145 c0
-14 -4 -22 -10 -19 -5 3 -10 1 -10 -5 0 -6 -4 -8 -10 -5 -5 3 -10 17 -10 31 0
14 4 22 10 19 6 -3 10 -1 10 5 0 6 5 8 10 5 6 -3 10 -17 10 -31z m53 24 c6
-21 -4 -48 -19 -48 -9 0 -14 11 -14 30 0 30 24 43 33 18z m55 -12 c4 -20 -16
-48 -29 -40 -11 6 -12 48 -2 58 11 10 28 1 31 -18z m-159 -22 c10 -23 9 -26
-4 -21 -8 4 -15 2 -15 -4 0 -6 -4 -7 -10 -4 -15 9 -12 55 3 55 8 0 19 -12 26
-26z m202 12 c5 3 9 -1 9 -8 0 -9 3 -9 10 2 9 13 10 13 10 0 -1 -17 -29 -59
-31 -44 -1 5 -1 12 0 16 0 4 -6 5 -14 2 -16 -7 -19 4 -8 32 4 11 8 13 11 6 2
-7 8 -10 13 -6z m-251 -43 c0 -14 -16 -18 -23 -5 -2 4 -2 2 -1 -5 6 -23 -11
-21 -28 2 -16 21 -16 24 -2 29 9 3 20 4 25 1 5 -4 6 2 3 12 -5 16 -4 16 10 -1
9 -11 16 -26 16 -33z m326 15 c5 -7 2 -9 -8 -5 -12 4 -14 1 -11 -13 5 -19 -12
-37 -21 -22 -3 5 -2 18 1 30 6 24 27 29 39 10z m-411 -18 c-3 -5 -1 -10 4 -10
6 0 11 -7 11 -16 0 -9 5 -12 12 -8 7 4 8 3 4 -4 -10 -17 -19 -15 -34 8 -11 19
-9 40 4 40 3 0 2 -4 -1 -10z m450 -30 c-22 -24 -18 -36 5 -15 24 22 27 9 4
-16 -13 -14 -19 -15 -29 -6 -7 7 -10 18 -7 26 3 9 1 12 -6 7 -17 -10 -15 0 3
18 9 8 22 13 31 9 13 -5 13 -7 -1 -23z m-470 -24 c14 -8 22 -17 17 -20 -6 -3
-21 3 -33 14 -28 23 -22 25 16 6z m306 -62 c32 -29 42 -83 38 -208 l-4 -118
-33 -29 c-69 -62 -182 -18 -182 70 0 17 6 21 35 21 29 0 35 -4 35 -20 0 -12 9
-24 23 -29 38 -14 47 -3 47 57 0 44 -3 53 -12 44 -21 -21 -77 -14 -103 13 -21
21 -25 33 -25 88 0 69 20 109 64 128 30 13 94 4 117 -17z m-103 -567 c-2 -11
-10 -23 -18 -25 -12 -4 -13 -2 -3 9 9 11 6 14 -17 14 -20 0 -26 -4 -23 -15 3
-10 -1 -8 -11 4 -21 26 -14 33 34 33 35 0 41 -3 38 -20z m152 -1 c0 -20 -4
-24 -17 -19 -11 4 -14 3 -9 -5 10 -16 -6 -15 -23 1 -11 10 -13 9 -7 -1 8 -13
-19 -12 -42 2 -7 4 -19 5 -26 3 -9 -4 -13 3 -13 17 0 22 4 23 68 25 68 2 69 2
69 -23z"/>
<path d="M1652 1660 c0 -14 2 -19 5 -12 2 6 2 18 0 25 -3 6 -5 1 -5 -13z"/>
<path d="M1700 1655 c0 -8 2 -15 4 -15 2 0 6 7 10 15 3 8 1 15 -4 15 -6 0 -10
-7 -10 -15z"/>
<path d="M1617 1443 c-4 -3 -7 -28 -7 -55 l0 -48 35 0 35 0 0 55 c0 54 -1 55
-28 55 -16 0 -32 -3 -35 -7z"/>
<path d="M1651 927 c2 -2 11 -8 20 -15 12 -9 16 -9 16 1 0 7 -9 14 -20 14 -11
1 -18 1 -16 0z"/>
<path d="M1708 923 c7 -3 16 -2 19 1 4 3 -2 6 -13 5 -11 0 -14 -3 -6 -6z"/>
<path d="M448 1838 c-12 -10 -65 -34 -116 -54 -149 -58 -170 -92 -197 -314 -8
-69 -20 -161 -26 -205 -12 -83 -21 -473 -12 -512 4 -20 12 -23 48 -23 47 0 45
-3 61 95 3 22 17 99 30 170 16 83 23 145 19 172 -5 36 4 101 42 293 12 61 22
-19 28 -230 8 -270 -7 -404 -56 -501 -46 -92 -59 -158 -59 -300 l0 -127 44
-11 c55 -14 199 -14 245 -1 42 12 51 24 51 70 0 46 27 171 39 183 10 10 35
-91 46 -185 6 -57 7 -58 48 -69 44 -12 248 -8 279 5 23 10 29 30 35 118 9 124
-27 260 -89 333 -14 17 -31 53 -37 80 -25 103 -26 655 -1 655 4 0 11 -26 15
-57 4 -32 13 -85 21 -118 7 -33 14 -94 14 -136 0 -42 11 -135 24 -205 14 -71
28 -154 33 -184 4 -30 11 -54 16 -52 4 1 25 2 47 2 l40 0 0 213 c0 203 -5 269
-45 557 -28 199 -47 229 -179 279 -47 18 -100 42 -119 55 -31 21 -39 23 -90
14 -34 -6 -78 -6 -115 -1 -52 8 -63 7 -84 -9z m317 -228 c17 0 24 -7 28 -27 6
-34 4 -38 -19 -25 -9 5 -32 6 -50 2 -37 -9 -39 -5 -24 35 7 19 15 25 26 21 9
-3 26 -6 39 -6z m-15 -70 c0 -5 -5 -10 -11 -10 -5 0 -7 5 -4 10 3 6 8 10 11
10 2 0 4 -4 4 -10z m30 -15 c-7 -8 -20 -15 -29 -15 -11 0 -8 5 9 14 33 19 35
19 20 1z m-297 -107 c25 -33 16 -74 -18 -90 -57 -26 -106 43 -70 98 21 32 61
29 88 -8z m72 -7 c3 -5 -3 -11 -12 -13 -10 -2 12 -4 49 -3 38 0 68 4 68 9 0 4
7 6 15 2 8 -3 15 0 16 7 0 9 2 8 6 -1 4 -9 8 -10 18 -2 10 8 15 6 20 -10 5
-17 10 -19 21 -9 17 14 18 8 2 -26 -6 -14 -15 -25 -20 -25 -5 0 -6 4 -3 10 3
5 1 18 -4 27 -9 16 -11 15 -12 -7 l-1 -25 -8 25 -8 25 -2 -25 -2 -25 -8 25
c-7 22 -8 22 -9 4 -1 -17 -7 -20 -37 -18 -20 2 -46 -2 -57 -8 -15 -8 -22 -8
-25 0 -2 6 -9 9 -17 6 -7 -3 -16 -1 -20 5 -3 6 0 11 7 11 10 0 10 2 -1 9 -8 5
-11 16 -8 25 7 18 23 21 32 7z m347 -905 c13 -18 9 -141 -4 -154 -19 -19 -55
-14 -72 10 -12 17 -13 24 -3 30 7 4 17 1 24 -8 14 -19 33 -10 33 16 0 13 -5
17 -19 13 -45 -12 -68 60 -30 98 21 21 56 19 71 -5z m-585 -78 c1 -18 -1 -27
-4 -20 -3 6 -20 12 -39 12 -27 0 -34 4 -34 20 0 17 7 20 38 20 37 0 39 -2 39
-32z"/>
<path d="M716 1585 c4 -8 8 -15 10 -15 2 0 4 7 4 15 0 8 -4 15 -10 15 -5 0 -7
-7 -4 -15z"/>
<path d="M408 1403 c7 -3 16 -2 19 1 4 3 -2 6 -13 5 -11 0 -14 -3 -6 -6z"/>
<path d="M440 1406 c0 -2 9 -6 20 -9 11 -3 18 -1 14 4 -5 9 -34 13 -34 5z"/>
<path d="M418 1383 c6 -2 18 -2 25 0 6 3 1 5 -13 5 -14 0 -19 -2 -12 -5z"/>
<path d="M418 1363 c6 -2 18 -2 25 0 6 3 1 5 -13 5 -14 0 -19 -2 -12 -5z"/>
<path d="M580 1380 c0 -5 5 -10 11 -10 5 0 7 5 4 10 -3 6 -8 10 -11 10 -2 0
-4 -4 -4 -10z"/>
<path d="M625 1380 c-3 -5 -1 -10 4 -10 6 0 11 5 11 10 0 6 -2 10 -4 10 -3 0
-8 -4 -11 -10z"/>
<path d="M850 465 c0 -16 6 -25 15 -25 9 0 15 9 15 25 0 16 -6 25 -15 25 -9 0
-15 -9 -15 -25z"/>
<path d="M1013 654 c-26 -18 -25 -20 59 -133 53 -71 61 -108 28 -141 -21 -21
-17 -50 8 -50 18 0 82 66 73 75 -5 6 17 25 30 25 4 0 3 -18 -1 -40 -7 -38 -6
-40 19 -40 l26 0 3 103 c1 56 3 127 5 157 l2 55 -39 3 -39 3 7 -63 c4 -35 10
-88 13 -118 l5 -55 -22 20 c-12 10 -44 63 -72 117 -52 103 -63 111 -105 82z"/>
</g>
</svg>
